<?xml version="1.0" encoding="UTF-8"?><svg id="Layer_1" xmlns="http://www.w3.org/2000/svg" viewBox="0 0 300 300"><defs><style>.cls-1{fill:#dbac36;}</style></defs><path class="cls-1" d="m256.53,139.47c-.28-1.79-1.51-3.29-3.21-3.92-18.26-6.75-36.89-13.53-55.36-20.15h0c-5.94-2.13-9.54-7.1-9.64-13.3-.24-15.31-1.67-30.83-4.24-46.13-.33-1.99-1.83-3.58-3.79-4.04-1.96-.46-4.01.3-5.19,1.93-3.51,4.84-7.03,9.65-10.46,14.29-6.01,8.12-12.22,16.51-18.72,24.85-5.39,6.91-10.97,13.34-20,16.08-7.27,2.2-15.38,1.8-23.24,1.4h-.19c-2.12-.11-4.31-.22-6.42-.27l-46.09-.99c-2.01-.04-3.88,1.14-4.69,3.01-.81,1.86-.41,4.03,1,5.48l30.28,31.08c5.5,5.55,10.69,10.78,13.6,17.77,6.44,15.47-.46,35.8-5.5,50.66l-.26.76c-.89,2.62-1.88,5.39-2.93,8.23-.7,1.87-.21,3.97,1.23,5.35,1.44,1.38,3.56,1.77,5.4.99l30.74-12.98c5.27-2.27,10.73-4.63,16.47-4.63,1.69,0,3.29.2,4.9.6,6.11,1.54,11.85,5.72,16.97,9.46,1.47,1.08,3,2.19,4.51,3.21l30.58,20.81c.85.58,1.83.87,2.81.87.85,0,1.71-.22,2.48-.66,1.66-.95,2.63-2.76,2.51-4.67-.21-3.22-.39-6.42-.52-9.52-.37-8.24-.52-16.67-.45-25.05v-1.27c.06-7.08.1-13.76,3.14-20.03,3.09-6.37,8.82-10.69,14.36-14.86,1.09-.82,2.17-1.64,3.24-2.47l34.8-27.19c1.43-1.12,2.14-2.92,1.86-4.71Z"/></svg>